<?xml version="1.0" encoding="UTF-8"?> <svg xmlns="http://www.w3.org/2000/svg" id="Ebene_1" data-name="Ebene 1" width="597" height="150" viewBox="0 0 597 150"><defs><style>.cls-1,.cls-4{fill:#f08705;}.cls-2{fill:#fff;}.cls-3{fill:#333;}.cls-3,.cls-4{fill-rule:evenodd;}</style></defs><rect class="cls-1" width="150" height="150" rx="6"></rect><rect class="cls-2" x="88.5" y="51.75" width="9" height="45" transform="translate(-24.67 56.45) rotate(-30)"></rect><rect class="cls-2" x="34.5" y="69.75" width="45" height="9" transform="translate(-35.8 86.49) rotate(-60)"></rect><rect class="cls-2" x="52.5" y="23.25" width="45" height="37.5" rx="6"></rect><rect class="cls-2" x="85.5" y="89.25" width="45" height="37.5" rx="6"></rect><rect class="cls-2" x="19.5" y="89.25" width="45" height="37.5" rx="6"></rect><path class="cls-3" d="M250.5,120.87a2.12,2.12,0,0,1-.31,1.18,2.35,2.35,0,0,1-1.05.79,6.9,6.9,0,0,1-2,.45c-.85.08-1.89.13-3.13.13s-2.39,0-3.21-.13a7.31,7.31,0,0,1-2-.45,2.56,2.56,0,0,1-1.11-.79,2,2,0,0,1-.34-1.18v-6.31a35.88,35.88,0,0,1-8.94,7.33A20.9,20.9,0,0,1,218,124.5,21.15,21.15,0,0,1,207.34,122a20.65,20.65,0,0,1-7.11-6.8,29.61,29.61,0,0,1-4-10,56.23,56.23,0,0,1-1.24-12,54.17,54.17,0,0,1,1.58-13.63,31.11,31.11,0,0,1,4.61-10.33,20.66,20.66,0,0,1,7.54-6.57,22.65,22.65,0,0,1,10.4-2.29,18,18,0,0,1,8.41,1.95A29.59,29.59,0,0,1,235,68V37.24a2,2,0,0,1,.34-1.15,2.61,2.61,0,0,1,1.24-.86,10.71,10.71,0,0,1,2.38-.54,37.6,37.6,0,0,1,7.55,0,10.13,10.13,0,0,1,2.35.54,2.89,2.89,0,0,1,1.24.86,1.92,1.92,0,0,1,.37,1.15v83.63ZM235,82.88a34.6,34.6,0,0,0-6.4-6.63,10.51,10.51,0,0,0-6.4-2.29A8.79,8.79,0,0,0,217,75.52a11.28,11.28,0,0,0-3.53,4.17,22.61,22.61,0,0,0-2,5.83,33.57,33.57,0,0,0-.65,6.6,42.89,42.89,0,0,0,.56,6.95,22.36,22.36,0,0,0,1.82,6,11.37,11.37,0,0,0,3.38,4.24,8.56,8.56,0,0,0,5.32,1.59,10.27,10.27,0,0,0,3.12-.48,11.42,11.42,0,0,0,3.1-1.56,21.12,21.12,0,0,0,3.24-2.83c1.12-1.17,2.33-2.61,3.65-4.3V82.88Z"></path><path class="cls-3" d="M306,70.21c0,1.49-.05,2.71-.14,3.66a10.55,10.55,0,0,1-.38,2.24,2.28,2.28,0,0,1-.69,1.13,1.86,1.86,0,0,1-1.08.31,3.63,3.63,0,0,1-1.18-.22l-1.47-.47c-.55-.16-1.15-.32-1.8-.46a9.75,9.75,0,0,0-2.16-.22,7.46,7.46,0,0,0-2.75.53,11.46,11.46,0,0,0-2.85,1.65,20.58,20.58,0,0,0-3.08,3,48.25,48.25,0,0,0-3.43,4.6v34.58a1.63,1.63,0,0,1-.39,1.08,2.94,2.94,0,0,1-1.34.78,12.64,12.64,0,0,1-2.52.47q-1.58.15-4,.15t-4-.15a12.48,12.48,0,0,1-2.53-.47,2.94,2.94,0,0,1-1.34-.78,1.63,1.63,0,0,1-.39-1.08V65.05a1.85,1.85,0,0,1,.33-1.09,2.43,2.43,0,0,1,1.18-.78,10.13,10.13,0,0,1,2.19-.46,28.54,28.54,0,0,1,3.37-.16,30.18,30.18,0,0,1,3.47.16,8.58,8.58,0,0,1,2.13.46,2.35,2.35,0,0,1,1.07.78,1.85,1.85,0,0,1,.33,1.09V72a45.78,45.78,0,0,1,4.32-5.13,23.93,23.93,0,0,1,3.86-3.2A12.39,12.39,0,0,1,294.42,62a14.76,14.76,0,0,1,3.66-.47c.57,0,1.18,0,1.84.09a19.59,19.59,0,0,1,2,.32,12.51,12.51,0,0,1,1.83.5,3.68,3.68,0,0,1,1.15.58,2,2,0,0,1,.52.69,5.24,5.24,0,0,1,.3,1,14.73,14.73,0,0,1,.2,2c0,.88.06,2,.06,3.55"></path><path class="cls-3" d="M362.37,122.49a4.26,4.26,0,0,1-2,.72,25.87,25.87,0,0,1-4,.23,26.2,26.2,0,0,1-4.1-.23,3.53,3.53,0,0,1-1.82-.72,1.81,1.81,0,0,1-.53-1.38v-4.44a25.41,25.41,0,0,1-7.85,5.76,22.78,22.78,0,0,1-9.79,2.07,27.43,27.43,0,0,1-8.17-1.16,18.49,18.49,0,0,1-6.45-3.44,15.62,15.62,0,0,1-4.22-5.67,19.36,19.36,0,0,1-1.5-7.9,17.89,17.89,0,0,1,1.91-8.48,15.56,15.56,0,0,1,5.69-5.95A28.45,28.45,0,0,1,329,88.43,67.36,67.36,0,0,1,342.1,87.3h5.44V83.92a18,18,0,0,0-.53-4.6A7.67,7.67,0,0,0,345.25,76,7.26,7.26,0,0,0,342,74.09a17.63,17.63,0,0,0-5-.62,26.09,26.09,0,0,0-7,.87,41,41,0,0,0-5.47,1.94c-1.59.71-2.91,1.36-4,1.94a5.74,5.74,0,0,1-2.59.88,1.81,1.81,0,0,1-1.22-.44,3.15,3.15,0,0,1-.88-1.25,8.49,8.49,0,0,1-.53-2,16.45,16.45,0,0,1-.19-2.64,12.44,12.44,0,0,1,.31-3.07,4.8,4.8,0,0,1,1.19-2,12,12,0,0,1,3.07-2,36.52,36.52,0,0,1,5.13-2,46.36,46.36,0,0,1,6.41-1.53,42.13,42.13,0,0,1,7.17-.6,43,43,0,0,1,11.23,1.28,19,19,0,0,1,7.67,4,15.24,15.24,0,0,1,4.37,6.86,32,32,0,0,1,1.38,10v37.57A1.62,1.62,0,0,1,362.37,122.49ZM347.54,97.2h-6a32.66,32.66,0,0,0-6.51.56,12.48,12.48,0,0,0-4.38,1.69,6.93,6.93,0,0,0-2.47,2.72,8.27,8.27,0,0,0-.78,3.66,7,7,0,0,0,2.22,5.51,8.84,8.84,0,0,0,6.16,2,11.58,11.58,0,0,0,6.1-1.69,25.39,25.39,0,0,0,5.67-5V97.2Z"></path><path class="cls-3" d="M463.5,65.35a8.86,8.86,0,0,1-.19,1.67c-.13.65-.36,1.6-.71,2.83l-15.19,49.81a5.39,5.39,0,0,1-.83,1.7,3.46,3.46,0,0,1-1.57,1,11.55,11.55,0,0,1-3,.49c-1.3.09-3,.13-5.08.13s-3.79,0-5.11-.15a13.79,13.79,0,0,1-3.1-.53,3.37,3.37,0,0,1-1.63-1,4.31,4.31,0,0,1-.77-1.64l-9.57-33.45-.14-.55-.12.55-8.82,33.45a4.45,4.45,0,0,1-.73,1.7,3.23,3.23,0,0,1-1.63,1,13.07,13.07,0,0,1-3.13.49c-1.32.09-3,.13-5.11.13s-3.85,0-5.14-.15a13.8,13.8,0,0,1-3.07-.53,3.42,3.42,0,0,1-1.63-1,4.46,4.46,0,0,1-.77-1.64L371.39,69.85a19.56,19.56,0,0,1-.73-2.8,10.84,10.84,0,0,1-.16-1.7,1.77,1.77,0,0,1,.35-1.08,2.42,2.42,0,0,1,1.28-.74,12.67,12.67,0,0,1,2.49-.4c1-.08,2.35-.13,3.93-.13s3.09,0,4.15.13a10.49,10.49,0,0,1,2.49.43,2.32,2.32,0,0,1,1.25.84,3.93,3.93,0,0,1,.54,1.26l11.31,40.42.13.75.13-.75,10.6-40.42a3.22,3.22,0,0,1,.61-1.26,2.78,2.78,0,0,1,1.24-.84,9.34,9.34,0,0,1,2.33-.43c1-.08,2.29-.13,3.87-.13a36,36,0,0,1,3.83.16,12.07,12.07,0,0,1,2.33.43,2.35,2.35,0,0,1,1.21.74,3.44,3.44,0,0,1,.55,1.08l11.36,40.73.2.68.12-.74,10.86-40.43a3.1,3.1,0,0,1,.51-1.26,2.53,2.53,0,0,1,1.28-.83,10.32,10.32,0,0,1,2.43-.44c1-.08,2.32-.12,3.89-.12s2.87,0,3.87.12a12,12,0,0,1,2.36.4,2.29,2.29,0,0,1,1.18.74,1.94,1.94,0,0,1,.32,1.09"></path><path class="cls-3" d="M489,114.6q0,5.87-2.13,7.88c-1.43,1.35-4,2-7.65,2s-6.22-.66-7.62-2-2.1-3.84-2.1-7.54q0-5.94,2.14-8c1.42-1.34,4-2,7.71-2s6.15.66,7.55,2,2.1,3.86,2.1,7.61"></path><path class="cls-4" d="M523.5,45.65q0,4.77-1.93,6.58c-1.28,1.22-3.65,1.82-7.13,1.82s-5.89-.59-7.11-1.76S505.5,49,505.5,46s.63-5.38,1.89-6.61,3.66-1.85,7.17-1.85,5.84.6,7.08,1.79S523.5,42.6,523.5,45.65Zm-1.18,74.85a1.69,1.69,0,0,1-.37,1.09,2.69,2.69,0,0,1-1.27.78,10.63,10.63,0,0,1-2.39.48c-1,.1-2.26.15-3.79.15s-2.79,0-3.78-.15a10.63,10.63,0,0,1-2.39-.48,2.64,2.64,0,0,1-1.27-.78,1.7,1.7,0,0,1-.38-1.09V64.7a1.7,1.7,0,0,1,.38-1.09,2.88,2.88,0,0,1,1.27-.82,10.87,10.87,0,0,1,2.39-.53,37.8,37.8,0,0,1,7.57,0,10.87,10.87,0,0,1,2.39.53,2.88,2.88,0,0,1,1.27.82,1.69,1.69,0,0,1,.37,1.09Z"></path><path class="cls-4" d="M597,92.44a42.7,42.7,0,0,1-1.88,13,27.43,27.43,0,0,1-5.71,10.14,25.24,25.24,0,0,1-9.61,6.58,36,36,0,0,1-13.49,2.32,37,37,0,0,1-13-2.07,23.35,23.35,0,0,1-9.16-6,24.61,24.61,0,0,1-5.4-9.7A45.23,45.23,0,0,1,537,93.56a42.36,42.36,0,0,1,1.91-13,27.45,27.45,0,0,1,5.75-10.15,25.5,25.5,0,0,1,9.57-6.54,35.72,35.72,0,0,1,13.46-2.32,37.65,37.65,0,0,1,13,2,22.66,22.66,0,0,1,9.13,6,24.88,24.88,0,0,1,5.37,9.7A45.46,45.46,0,0,1,597,92.44m-16.26.62a40.7,40.7,0,0,0-.65-7.6,17.73,17.73,0,0,0-2.23-6,11.07,11.07,0,0,0-4.18-4A13.39,13.39,0,0,0,567.13,74,13.82,13.82,0,0,0,561,75.25,11.1,11.1,0,0,0,556.65,79a17.92,17.92,0,0,0-2.54,6,33.35,33.35,0,0,0-.85,7.93,39.1,39.1,0,0,0,.69,7.6,18.63,18.63,0,0,0,2.23,6,10.6,10.6,0,0,0,4.17,4,13.83,13.83,0,0,0,6.53,1.41,14.14,14.14,0,0,0,6.21-1.29,11.19,11.19,0,0,0,4.33-3.72,17.35,17.35,0,0,0,2.51-5.92,35.18,35.18,0,0,0,.81-7.93"></path></svg> 