<svg version="1.1" id="Layer_1" xmlns:x="ns_extend;" xmlns:i="ns_ai;" xmlns:graph="ns_graphs;" xmlns="http://www.w3.org/2000/svg" xmlns:xlink="http://www.w3.org/1999/xlink" x="0px" y="0px" viewBox="0 0 114.4 114.6" style="enable-background:new 0 0 114.4 114.6;" xml:space="preserve">
 <style type="text/css">
  .st0{fill:#00E7FF;}
	.st1{fill:#FFFFFF;}
 </style>
 <metadata>
  <sfw xmlns="ns_sfw;">
   <slices>
   </slices>
   <sliceSourceBounds bottomLeftOrigin="true" height="114.6" width="114.4" x="-601" y="-323.7">
   </sliceSourceBounds>
  </sfw>
 </metadata>
 <g>
  <path class="st0" d="M74.4,53.7c0.2-0.1,0.4-0.2,0.7-0.3l1.3-0.5L58.1,0.5L57.8,0h-0.6c-2.7,0-5.5,0.2-8.2,0.7l-1.1,0.2L73.6,54
		L74.4,53.7L74.4,53.7z">
  </path>
  <path class="st0" d="M70.9,56.3c0.3-0.3,0.6-0.6,0.9-0.9l0.6-0.5L30.3,7.5L29.8,7l-0.6,0.3c-2.6,1.5-5.1,3.1-7.4,5l-0.8,0.6
		l49.3,43.9L70.9,56.3L70.9,56.3z">
  </path>
  <path class="st0" d="M68.8,60c0.1-0.4,0.3-0.8,0.5-1.2l0.4-0.7L7.9,28.2l-0.4,0.7c-1.5,2.7-2.8,5.5-3.9,8.4L3.3,38l65.2,22.7
		L68.8,60z">
  </path>
  <path class="st0" d="M68.1,64.3c0-0.2,0-0.3,0-0.5v-0.2c0,0,0-0.2,0-0.3c0-0.1,0-0.3,0-0.4v-0.8L0,58.2v0.9c0.1,3,0.4,6.1,1,9.1
		l0.1,0.7l67-3.9V64.3L68.1,64.3z">
  </path>
  <path class="st0" d="M69.2,68.4c-0.2-0.4-0.3-0.8-0.5-1.2l-0.3-0.8l-60,20.9L9,88.2c1.6,2.4,3.3,4.8,5.3,7l0.4,0.5l54.9-26.5
		L69.2,68.4z">
  </path>
  <path class="st0" d="M71.8,71.8c-0.3-0.3-0.6-0.6-0.9-0.9l-0.5-0.6L29,107.2l1,0.5c2.4,1.2,4.8,2.3,7.3,3.2l0.5,0.2l34.6-38.8
		L71.8,71.8z">
  </path>
  <path class="st0" d="M75.6,74c-0.4-0.1-0.8-0.3-1.2-0.5l-0.7-0.4h0l-20,41.3h1.3c0.4,0,0.7,0,1.1,0c0.4,0,0.8,0.1,1.2,0.1
		c1.6,0,3.1-0.1,4.6-0.2l0.5,0l14-40.1L75.6,74L75.6,74z">
  </path>
  <path class="st1" d="M79.8,74.6c-0.2,0-0.3,0-0.5,0c-0.2,0-0.3,0-0.5,0c-0.1,0-0.3,0-0.4,0h-0.8l-2.1,37l1.2-0.4
		c1.8-0.7,3.6-1.4,5.3-2.2l0.5-0.2l-2-34.1H79.8z">
  </path>
  <path class="st1" d="M87.4,70.9c-0.3,0.3-0.6,0.6-0.9,0.9l-0.6,0.5l17.2,19.3l0.6-0.8c0.8-1.1,1.6-2.3,2.3-3.5l0.4-0.6L87.9,70.3
		L87.4,70.9L87.4,70.9z">
  </path>
  <path class="st1" d="M90.2,62.1v0.8c0,0.2,0,0.3,0,0.5c0,0.1,0,0.2,0,0.2c0,0.1,0,0.2,0,0.3c0,0.1,0,0.3,0,0.4V65l23.6,1.4l0.1-0.7
		c0.2-1.5,0.3-2.8,0.5-4l0.1-0.9L90.2,62.1L90.2,62.1z">
  </path>
  <path class="st1" d="M86.5,55.3c0.3,0.3,0.6,0.6,0.9,0.9l0.5,0.6l22.7-20.2l-0.2-0.5c-0.6-1.6-1.3-3.2-2.2-4.7l-0.5-1.1L85.9,54.8
		L86.5,55.3L86.5,55.3z">
  </path>
  <path class="st1" d="M78.5,52.6c0.2,0,0.3,0,0.5,0c0.2,0,0.3,0,0.5,0c0.1,0,0.3,0,0.4,0h0.8l2.7-46.3l-0.5-0.2
		C80.6,5,78.3,4,76,3.2l-1.2-0.4l2.9,49.8L78.5,52.6L78.5,52.6z">
  </path>
  <path class="st1" d="M84,73.5c-0.4,0.2-0.8,0.3-1.2,0.5L82,74.3l10,28.6l0.9-0.7c1.2-1,2.4-2,3.5-3.1l0.6-0.5L84.7,73.2L84,73.5
		L84,73.5z">
  </path>
  <path class="st1" d="M89.6,67.2c-0.1,0.4-0.3,0.8-0.5,1.2l-0.4,0.7l21.3,10.3l0.3-0.8c0.4-1,0.9-2.3,1.4-3.7l0.2-0.8l-22.1-7.7
		L89.6,67.2z">
  </path>
  <path class="st1" d="M89.1,58.8c0.2,0.4,0.3,0.8,0.5,1.2l0.3,0.8l24.5-8.5l-0.1-0.6c-0.2-1.5-0.4-2.9-0.7-4.4l-0.2-1L88.8,58.1
		L89.1,58.8L89.1,58.8z">
  </path>
  <path class="st1" d="M82.8,53.2c0.4,0.1,0.8,0.3,1.2,0.5l0.7,0.4L101,20.4l-0.3-0.4c-1.4-1.6-2.8-3.1-4.3-4.5l-0.9-0.9L82,52.9
		L82.8,53.2L82.8,53.2z">
  </path>
 </g>
</svg>