<svg xmlns="http://www.w3.org/2000/svg" fill="none" viewBox="0 0 64 64" id="Dbt--Streamline-Svg-Logos" height="64" width="64">
  <desc>
    Dbt Streamline Icon: https://streamlinehq.com
  </desc>
  <path fill="#262a38" d="M41.637 23.736666666666665v16.331799999999998h-3.3097999999999996v-1.6656666666666666c-0.3461333333333333 0.5840666666666666 -0.8434666666666667 1.06 -1.4492666666666667 1.3628 -0.6489333333333334 0.3244666666666667 -1.3844666666666667 0.49753333333333327 -2.1197333333333335 0.49753333333333327 -0.9086 0.021666666666666667 -1.8172 -0.23793333333333333 -2.5742666666666665 -0.7571333333333332 -0.7786 -0.5191333333333332 -1.3843999999999999 -1.2329333333333332 -1.7738666666666667 -2.0766 -0.4325333333333333 -0.9733999999999999 -0.6488666666666667 -2.011733333333333 -0.6273333333333333 -3.0716666666666663 -0.021533333333333335 -1.0599333333333334 0.1948 -2.0982666666666665 0.6273333333333333 -3.05 0.3894666666666667 -0.8220666666666667 0.9952666666666665 -1.5358666666666665 1.752333333333333 -2.0334 0.7786 -0.49753333333333327 1.6872 -0.7354666666666666 2.5957999999999997 -0.7138666666666666 0.7137333333333333 0 1.4274666666666667 0.15146666666666667 2.0548666666666664 0.4759333333333333 0.6057999999999999 0.30279999999999996 1.1032 0.7570666666666666 1.4492666666666667 1.3195333333333332v-5.516066666666667l3.3746666666666667 -1.1032Zm-3.9802 13.108733333333333c0.43246666666666667 -0.5624666666666667 0.6704 -1.3844666666666667 0.6704 -2.4444 0 -1.0599333333333334 -0.21613333333333332 -1.8603333333333334 -0.6704 -2.4227333333333334 -0.4543333333333333 -0.5624 -1.1683333333333332 -0.8868666666666667 -1.9036 -0.8652666666666666 -0.7355333333333333 -0.04326666666666666 -1.4492666666666667 0.2812 -1.9254 0.8436666666666667 -0.454 0.5624 -0.6921999999999999 1.3628 -0.6921999999999999 2.4010666666666665 0 1.0599333333333334 0.2382 1.8819333333333335 0.6921999999999999 2.4659999999999997 0.4543333333333333 0.5840666666666666 1.1898666666666666 0.9085333333333333 1.9254 0.8869333333333334 0.8219333333333334 0 1.4707999999999999 -0.3028666666666666 1.9036 -0.8652666666666666Zm15.812733333333334 -7.592666666666666c0.7786 0.4974666666666666 1.3843999999999999 1.2113333333333332 1.7520666666666664 2.033333333333333 0.43246666666666667 0.9518 0.6488666666666667 1.9900666666666667 0.6273333333333333 3.0500666666666665 0.021533333333333335 1.0599333333333334 -0.19486666666666666 2.119866666666667 -0.6273333333333333 3.0716666666666663 -0.3894666666666667 0.8436 -0.9949999999999999 1.5574666666666666 -1.7738666666666667 2.0766 -0.7570666666666666 0.49753333333333327 -1.6656666666666666 0.7571333333333332 -2.574 0.7354666666666666 -0.7355333333333333 0.021666666666666667 -1.4711333333333334 -0.15139999999999998 -2.12 -0.49753333333333327 -0.6055333333333333 -0.30279999999999996 -1.1032 -0.7787333333333333 -1.4277333333333333 -1.3627333333333331v1.6872h-3.3310666666666666V24.839866666666666l3.3528666666666664 -1.1032v6.662466666666667c0.32426666666666665 -0.584 0.8219333333333334 -1.0599333333333334 1.4274666666666667 -1.3627333333333331 0.6491333333333333 -0.3461333333333333 1.3629333333333333 -0.5191333333333332 2.0984666666666665 -0.49753333333333327 0.9083333333333333 -0.021599999999999998 1.8169333333333333 0.23793333333333333 2.5957999999999997 0.7138666666666666Zm-1.6441333333333334 7.571c0.45426666666666665 -0.5840666666666666 0.6706666666666666 -1.4060666666666668 0.6706666666666666 -2.4875999999999996 0 -1.0383333333333333 -0.21639999999999998 -1.8387333333333333 -0.6706666666666666 -2.401133333333333 -0.4543333333333333 -0.5624 -1.0816666666666666 -0.8436 -1.9036 -0.8436 -0.7352666666666666 -0.04326666666666666 -1.4492666666666667 0.2812 -1.9251333333333334 0.8652666666666666 -0.45426666666666665 0.584 -0.6706666666666666 1.3843999999999999 -0.6706666666666666 2.4227333333333334 0 1.0599333333333334 0.21639999999999998 1.8819333333333335 0.6706666666666666 2.4443333333333332 0.4543333333333333 0.5840666666666666 1.1680666666666666 0.9085333333333333 1.9251333333333334 0.8652666666666666 0.7355333333333333 0.04326666666666666 1.4492666666666667 -0.2812 1.9036 -0.8652666666666666Zm8.652666666666665 -5.4944v4.369533333333333c0 0.6273333333333333 0.17306666666666665 1.0816 0.47606666666666664 1.3628 0.3461333333333333 0.3028666666666666 0.8001999999999999 0.45426666666666665 1.2762666666666667 0.43266666666666664 0.36766666666666664 0 0.7570666666666666 -0.06493333333333333 1.1032 -0.15146666666666667v2.5957999999999997c-0.6274 0.21633333333333332 -1.2762666666666667 0.3244666666666667 -1.9254 0.3028666666666666 -1.3841999999999999 0 -2.4442666666666666 -0.38939999999999997 -3.1798666666666664 -1.1681333333333332 -0.7352666666666666 -0.7787333333333333 -1.1031333333333333 -1.8819333333333335 -1.1031333333333333 -3.3096V26.181l3.3528666666666664 -1.0815333333333332v3.7205999999999997h2.855533333333333v2.5092666666666665h-2.855533333333333Z" stroke-width="0.6667"></path>
  <path fill="#ff694a" d="M23.574466666666666 21.032799999999998c0.5624 0.5408 0.9301333333333333 1.2546666666666666 1.0166666666666666 2.0334 0 0.3244666666666667 -0.08653333333333332 0.5408 -0.2812 0.9517333333333333 -0.19466666666666665 0.41100000000000003 -2.5957999999999997 4.564266666666667 -3.3096 5.710733333333334 -0.41100000000000003 0.6706 -0.6273333333333333 1.471 -0.6273333333333333 2.2496666666666663 0 0.8003999999999999 0.21633333333333332 1.5791333333333333 0.6273333333333333 2.2497333333333334 0.7138 1.1464666666666665 3.114933333333333 5.3213333333333335 3.3096 5.732333333333333 0.19466666666666665 0.41100000000000003 0.2812 0.6056666666666666 0.2812 0.9301333333333333 -0.08653333333333332 0.7787333333333333 -0.43266666666666664 1.4926 -0.9950666666666665 2.011733333333333 -0.5408 0.5624 -1.2546 0.9301999999999999 -2.011733333333333 0.9950666666666665 -0.3244666666666667 0 -0.5408 -0.08653333333333332 -0.9301333333333333 -0.2812 -0.38939999999999997 -0.19473333333333334 -4.629133333333333 -2.5309333333333335 -5.775599999999999 -3.244733333333333 -0.08653333333333332 -0.04326666666666666 -0.17306666666666665 -0.10819999999999999 -0.2812 -0.15146666666666667l-5.667466666666667 -3.3528666666666664c0.1297333333333333 1.0816 0.6056666666666666 2.119933333333333 1.3843999999999999 2.877 0.15139999999999998 0.15139999999999998 0.3028666666666666 0.2812 0.47586666666666666 0.41100000000000003 -0.1298 0.06486666666666666 -0.2812 0.1298 -0.41100000000000003 0.21633333333333332 -1.1464666666666665 0.7138 -5.3213333333333335 3.114933333333333 -5.732326666666666 3.3096 -0.4109933333333333 0.19466666666666665 -0.6056866666666666 0.2812 -0.9517933333333333 0.2812 -0.7787333333333333 -0.08653333333333332 -1.492573333333333 -0.4326 -2.011733333333333 -0.9949999999999999 -0.5624199999999999 -0.5408 -0.9301533333333333 -1.2546666666666666 -1.01668 -2.0334 0.02163333333333333 -0.3244666666666667 0.10815999999999999 -0.6489333333333334 0.2812133333333333 -0.9301333333333333 0.19468 -0.41100000000000003 2.59578 -4.585933333333333 3.3096066666666664 -5.732399999999999 0.41102666666666665 -0.6705333333333333 0.6273266666666666 -1.4492666666666667 0.6273266666666666 -2.2496666666666663 0 -0.8003333333333332 -0.2163 -1.5790666666666664 -0.6273266666666666 -2.2496666666666663 -0.7138266666666666 -1.1897333333333333 -3.13656 -5.3646 -3.3096066666666664 -5.775599999999999 -0.1730533333333333 -0.2812 -0.25958 -0.6056666666666666 -0.2812133333333333 -0.9301333333333333 0.08652666666666665 -0.7787333333333333 0.4326333333333333 -1.4926 0.9950533333333333 -2.0334 0.5407866666666666 -0.5624 1.2546266666666666 -0.9085333333333333 2.03336 -0.9950666666666665 0.3244666666666667 0.021666666666666667 0.6489333333333334 0.10819999999999999 0.9517933333333333 0.28126666666666666 0.3461066666666666 0.15139999999999998 3.3961266666666665 1.9251999999999998 5.018526666666666 2.877l0.3677333333333333 0.21626666666666666c0.1297333333333333 0.08653333333333332 0.23793333333333333 0.15139999999999998 0.3244666666666667 0.19473333333333334l0.17306666666666665 0.10813333333333333 5.775599999999999 3.4177999999999997c-0.1298 -1.2979333333333334 -0.8003999999999999 -2.4876666666666667 -1.8386666666666667 -3.2880000000000003 0.1298 -0.06493333333333333 0.2812 -0.1298 0.41100000000000003 -0.21633333333333332 1.1464666666666665 -0.7138666666666666 5.3213333333333335 -3.1366 5.732333333333333 -3.3096 0.2812 -0.17306666666666665 0.6056666666666666 -0.2596 0.9518 -0.28126666666666666 0.7570666666666666 0.08653333333333332 1.4709333333333332 0.43266666666666664 2.011733333333333 0.9950666666666665ZM12.931733333333334 33.535866666666664l1.2329999999999999 -1.2330666666666665c0.17306666666666665 -0.173 0.17306666666666665 -0.4326 0 -0.6056666666666666l-1.2329999999999999 -1.2329999999999999c-0.17306666666666665 -0.17306666666666665 -0.4326 -0.17306666666666665 -0.6056666666666666 0l-1.2329999999999999 1.2329999999999999c-0.17306666666666665 0.17306666666666665 -0.17306666666666665 0.43266666666666664 0 0.6056666666666666l1.2329999999999999 1.2330666666666665c0.15139999999999998 0.15139999999999998 0.4326 0.15139999999999998 0.6056666666666666 0Z" stroke-width="0.6667"></path>
</svg>
